<svg width="16" height="16" viewBox="0 0 16 16" fill="none" xmlns="http://www.w3.org/2000/svg">
<g clip-path="url(#clip0_138_2281)">
<path d="M8.05725 -0.0057373C4.7775 -0.0057373 2 2.78751 2 6.09651C2 9.56151 5.21925 13.105 7.38475 15.5955C7.393 15.6055 7.74302 15.9943 8.17425 15.9943H8.21252C8.64377 15.9943 8.99127 15.6055 9 15.5955C11.0322 13.2593 14 9.40726 14 6.09651C14 2.78751 11.8335 -0.0057373 8.05725 -0.0057373ZM8.25775 14.9248C8.24025 14.9423 8.21473 14.9618 8.19223 14.978C8.16923 14.9623 8.14423 14.9423 8.12575 14.9248L7.86423 14.624C5.81125 12.2688 3 9.04353 3 6.09651C3 3.33076 5.316 0.994013 8.05725 0.994013C11.4718 0.994013 13 3.55651 13 6.09651C13 8.33376 11.4042 11.3043 8.25775 14.9248ZM8.01748 3.02201C6.36073 3.02201 5.01748 4.36526 5.01748 6.02201C5.01748 7.67876 6.36073 9.02201 8.01748 9.02201C9.67423 9.02201 11.0175 7.67876 11.0175 6.02201C11.0175 4.36526 9.67423 3.02201 8.01748 3.02201ZM8.01748 8.02201C6.91473 8.02201 5.99447 7.10301 5.99447 6.00001C5.99447 4.89726 6.89172 4.00001 7.99447 4.00001C9.09797 4.00001 9.99447 4.89726 9.99447 6.00001C9.99497 7.10301 9.12098 8.02201 8.01748 8.02201Z" fill="#7929FF"/>
</g>
<defs>
<clipPath id="clip0_138_2281">
<rect width="16" height="16" fill="white"/>
</clipPath>
</defs>
</svg>
